<?xml version="1.0" standalone="no"?>
<!DOCTYPE svg PUBLIC "-//W3C//DTD SVG 20010904//EN"
 "http://www.w3.org/TR/2001/REC-SVG-20010904/DTD/svg10.dtd">
<svg version="1.0" xmlns="http://www.w3.org/2000/svg"
 width="700.000000pt" height="700.000000pt" viewBox="0 0 700.000000 700.000000"
 preserveAspectRatio="xMidYMid meet">
<metadata>
Created by potrace 1.11, written by Peter Selinger 2001-2013
</metadata>
<g transform="translate(0.000000,700.000000) scale(0.100000,-0.100000)"
fill="#000000" stroke="none">
<path d="M3250 6218 c-424 -39 -859 -192 -1210 -426 -176 -117 -280 -202 -416
-338 -865 -862 -1033 -2197 -408 -3245 410 -687 1096 -1147 1896 -1271 119
-18 185 -22 388 -22 203 0 269 4 388 22 803 125 1484 583 1898 1276 182 303
296 631 351 1001 27 183 24 553 -6 744 -88 572 -343 1079 -747 1487 -554 560
-1344 846 -2134 772z m-238 -1683 l3 -1184 108 132 c60 73 309 345 554 605
l446 472 291 0 290 0 -60 -62 c-34 -35 -278 -296 -543 -581 l-481 -518 103
-137 c57 -75 323 -432 592 -792 268 -360 492 -661 498 -668 7 -9 -48 -12 -269
-12 l-279 0 -480 640 -480 640 -147 -153 -147 -152 -1 -487 0 -488 -240 0
-240 0 0 1965 0 1965 240 0 240 0 2 -1185z"/>
</g>
</svg>
